<svg width="16" height="12" viewBox="0 0 16 12" fill="none" xmlns="http://www.w3.org/2000/svg">
<path d="M13.2567 0.604004C13.1717 0.605801 13.0893 0.633733 13.0207 0.684004C12.9674 0.737337 12.9134 0.814671 12.9134 0.892671C12.9134 1.026 13.0707 1.20867 13.362 1.508C14.5767 2.67734 15.1874 4.11 15.1834 5.83734C15.1787 7.74867 14.5367 9.284 13.2874 10.4733C13.0247 10.7087 12.9167 10.8933 12.916 11.0513C12.916 11.1287 12.9694 11.2093 13.0227 11.2867C13.0864 11.3486 13.1695 11.3868 13.258 11.3947C13.5474 11.3947 13.9514 11.0533 14.48 10.3887C15.508 9.12867 15.9734 7.73667 15.9994 5.83934C16.0234 3.94134 15.428 2.65467 14.264 1.326C13.844 0.851337 13.4954 0.604671 13.2567 0.604004ZM2.74403 0.605337C2.50536 0.605337 2.15603 0.852004 1.73736 1.32734C0.572031 2.656 -0.0233021 3.94267 0.000697883 5.84067C0.0273646 7.738 0.492031 9.12934 1.5207 10.39C2.04803 11.0547 2.4527 11.3967 2.74203 11.396C2.83042 11.3883 2.91339 11.3502 2.9767 11.288C3.03003 11.2107 3.08336 11.13 3.08336 11.0527C3.08336 10.8947 2.97536 10.71 2.7127 10.4753C1.46403 9.28534 0.821365 7.75067 0.816698 5.83867C0.812698 4.11134 1.42336 2.67867 2.63803 1.50934C2.92936 1.21 3.08736 1.028 3.0867 0.894004C3.0867 0.816004 3.03336 0.738671 2.97936 0.685337C2.91078 0.635066 2.82838 0.607134 2.74336 0.605337H2.74403ZM7.44803 1.202C7.44803 1.202 7.8847 2.58934 5.68203 5.68667C3.57803 8.642 6.3787 10.4533 6.6367 10.6107C6.44936 10.4907 5.3027 9.61067 6.9047 6.99534C7.21536 6.482 7.62203 6.01534 8.12737 4.968C8.12737 4.968 8.57403 5.59867 8.3407 6.96667C7.99203 9.034 9.8547 8.44267 9.88336 8.47134C10.534 9.238 9.3447 10.5847 9.27203 10.6267C9.20003 10.6673 12.6694 8.54 10.2047 5.33667C10.036 5.50534 9.8167 6.298 9.36003 6.18067C8.90403 6.06467 10.7767 3.85134 7.44803 1.202ZM6.6367 10.6107C6.65203 10.6213 6.66203 10.6267 6.66203 10.6267L6.6367 10.6107Z" fill="#ffffff"/>
</svg>
