<svg width="14" height="17" viewBox="0 0 14 17" fill="none" xmlns="http://www.w3.org/2000/svg">
<path d="M11.6555 15.0755V10.8075H13.08V16.5H0.228516V10.8075H1.64802V15.0755H11.6555ZM3.07202 13.6535H10.234V12.2295H3.07202V13.6535ZM3.24702 10.4195L10.2345 11.8775L10.534 10.4975L3.54952 9.0415L3.24702 10.4195ZM4.15302 7.0495L10.6225 10.068L11.224 8.768L4.75552 5.7475L4.15352 7.0395L4.15302 7.0495ZM5.96302 3.8595L11.4395 8.43L12.346 7.3485L6.86952 2.781L5.96802 3.8565L5.96302 3.8595ZM9.49952 0.5L8.33552 1.362L12.606 7.0985L13.77 6.2365L9.49952 0.5Z" fill="#737373"/>
</svg>
